<svg xmlns="http://www.w3.org/2000/svg" viewBox="0 0 478.502 478.502"><path d="M360.301 162.1l-65.8-83.2c-11.2-14.1-27.4-23.4-45.2-26V10c0-5.5-4.5-10-10-10s-10 4.5-10 10v42.9c-17.8 2.5-34 11.8-45.1 26l-66 83.3c-5.7 7.3-8.9 16.3-8.9 25.6v249.9c.1 22.6 18.5 40.9 41.1 40.8h177.5c22.6.2 41.1-18 41.3-40.6V187.8c0-9.3-3.2-18.3-8.9-25.7zm-121-11.7c16.1 0 29.1 13 29.1 29.1s-13 29.1-29.1 29.1-29.1-13-29.1-29.1c0-16 13-29.1 29.1-29.1zm110 287.3c0 11.7-9.6 20.8-21.3 20.8h-177.4c-11.7 0-21.3-9.1-21.3-20.8V187.8c0-4.8 1.6-9.5 4.6-13.2l65.9-83.3c7.4-9.3 17.8-15.8 29.5-18.1v58.2c-26.6 5.5-43.6 31.5-38.1 58.1s31.5 43.6 58.1 38.1 43.6-31.5 38.1-58.1c-4-19.1-18.9-34.1-38.1-38.1V73.2c4.1.8 8.1 2.2 11.9 4 6.8 3.3 12.8 8.1 17.5 14.1l66 83.2c3 3.8 4.6 8.5 4.6 13.3v249.9z"/><path d="M271.201 364.7c-4.4-13.9-17.3-23.4-31.9-23.4-7.4 0-13.4-6-13.4-13.4s6-13.4 13.4-13.4 13.4 6 13.4 13.4c0 5.5 4.5 10 10 10s10-4.5 10-10c0-14.6-9.5-27.5-23.4-31.9v-4.4c0-5.5-4.5-10-10-10s-10 4.5-10 10v4.4c-17.6 5.5-27.4 24.3-21.9 41.9 4.4 13.9 17.3 23.4 31.9 23.4 7.4 0 13.4 6 13.4 13.4s-6 13.4-13.4 13.4-13.4-6-13.4-13.4c0-5.5-4.5-10-10-10s-10 4.5-10 10c0 14.6 9.5 27.5 23.4 31.9v5c0 5.5 4.5 10 10 10s10-4.5 10-10v-5c17.6-5.5 27.4-24.3 21.9-41.9z"/></svg>