<svg xmlns="http://www.w3.org/2000/svg" viewBox="0 0 496 496"><path d="M480 48V0H336v48h-16v104c0 13.232 10.768 24 24 24h32v120.024A103.452 103.452 0 00336 288H136a104.16 104.16 0 00-40 7.992v-64.656c19.096-11.088 32-31.712 32-55.344V32h-16V0H16v32H0v144c0 23.624 12.904 44.256 32 55.344V392c0 57.344 46.656 104 104 104h200c57.344 0 104-46.656 104-104V176h32c13.232 0 24-10.768 24-24V48h-16zM32 16h64v16H32V16zM16 176V48h96v48H48V80H32v48h16v-16h64v64c0 26.472-21.528 48-48 48s-48-21.528-48-48zm320 304H136c-48.52 0-88-39.48-88-88V237.896C53.128 239.224 58.464 240 64 240s10.872-.776 16-2.104V392c0 30.872 25.12 56 56 56h200c30.88 0 56-25.128 56-56s-25.12-56-56-56H176v16h160c22.056 0 40 17.944 40 40s-17.944 40-40 40H136c-22.056 0-40-17.944-40-40s17.944-40 40-40h24v-16h-24c-15.664 0-29.824 6.48-40 16.888V313.8c12.336-6.32 26.024-9.8 40-9.8h200c48.52 0 88 39.48 88 88s-39.48 88-88 88zm88-143.168a104.748 104.748 0 00-32-32.328V176h32v160.832zM480 152c0 4.416-3.592 8-8 8H344c-4.408 0-8-3.584-8-8V64h96V48h-80V16h16v16h16V16h16v16h16V16h16v16h16V16h16v32h-16v16h32v88z"/></svg>