<?xml version="1.0" encoding="iso-8859-1"?>
<!-- Generator: Adobe Illustrator 19.0.0, SVG Export Plug-In . SVG Version: 6.00 Build 0)  -->
<svg version="1.1" id="Capa_1" xmlns="http://www.w3.org/2000/svg" xmlns:xlink="http://www.w3.org/1999/xlink" x="0px" y="0px"
	 viewBox="0 0 496 496" style="enable-background:new 0 0 496 496;" xml:space="preserve">
<g>
	<g>
		<path d="M480,48V0H336v48h-16v104c0,13.232,10.768,24,24,24h32v120.024c-12.32-5.152-25.832-8.024-40-8.024H136
			c-13.784,0-27.392,2.744-40,7.992v-64.656c19.096-11.088,32-31.712,32-55.344V32h-16V0H16v32H0v144
			c0,23.624,12.904,44.256,32,55.344V392c0,57.344,46.656,104,104,104h200c57.344,0,104-46.656,104-104V176h32
			c13.232,0,24-10.768,24-24V48H480z M32,16h64v16H32V16z M16,176V48h96v48H48V80H32v48h16v-16h64v64c0,26.472-21.528,48-48,48
			S16,202.472,16,176z M336,480H136c-48.52,0-88-39.48-88-88V237.896C53.128,239.224,58.464,240,64,240s10.872-0.776,16-2.104V392
			c0,30.872,25.12,56,56,56h200c30.88,0,56-25.128,56-56s-25.12-56-56-56H176v16h160c22.056,0,40,17.944,40,40
			c0,22.056-17.944,40-40,40H136c-22.056,0-40-17.944-40-40c0-22.056,17.944-40,40-40h24v-16h-24c-15.664,0-29.824,6.48-40,16.888
			V313.8c12.336-6.32,26.024-9.8,40-9.8h200c48.52,0,88,39.48,88,88C424,440.52,384.52,480,336,480z M424,336.832
			c-8.168-12.984-19.096-24.032-32-32.328V176h32V336.832z M480,152c0,4.416-3.592,8-8,8H344c-4.408,0-8-3.584-8-8V64h96V48h-80V16
			h16v16h16V16h16v16h16V16h16v16h16V16h16v32h-16v16h32V152z"/>
	</g>
</g>
<g>
</g>
<g>
</g>
<g>
</g>
<g>
</g>
<g>
</g>
<g>
</g>
<g>
</g>
<g>
</g>
<g>
</g>
<g>
</g>
<g>
</g>
<g>
</g>
<g>
</g>
<g>
</g>
<g>
</g>
</svg>
